<?xml version="1.0" encoding="UTF-8" standalone="no"?>
<svg
   xmlns:dc="http://purl.org/dc/elements/1.1/"
   xmlns:cc="http://creativecommons.org/ns#"
   xmlns:rdf="http://www.w3.org/1999/02/22-rdf-syntax-ns#"
   xmlns:svg="http://www.w3.org/2000/svg"
   xmlns="http://www.w3.org/2000/svg"
   xmlns:sodipodi="http://sodipodi.sourceforge.net/DTD/sodipodi-0.dtd"
   xmlns:inkscape="http://www.inkscape.org/namespaces/inkscape"
   version="1.1"
   id="svg833"
   width="1002.6667"
   height="264"
   viewBox="0 0 1002.6667 264"
   sodipodi:docname="niftified-logo.svg"
   inkscape:version="1.0.2 (e86c870879, 2021-01-15, custom)">
  <metadata
     id="metadata839">
    <rdf:RDF>
      <cc:Work
         rdf:about="">
        <dc:format>image/svg+xml</dc:format>
        <dc:type
           rdf:resource="http://purl.org/dc/dcmitype/StillImage" />
        <dc:title></dc:title>
      </cc:Work>
    </rdf:RDF>
  </metadata>
  <defs
     id="defs837" />
  <sodipodi:namedview
     pagecolor="#ffffff"
     bordercolor="#666666"
     borderopacity="1"
     objecttolerance="10"
     gridtolerance="10"
     guidetolerance="10"
     inkscape:pageopacity="0"
     inkscape:pageshadow="2"
     inkscape:window-width="1920"
     inkscape:window-height="986"
     id="namedview835"
     showgrid="false"
     inkscape:zoom="0.9083313"
     inkscape:cx="384.1313"
     inkscape:cy="145.19447"
     inkscape:window-x="-11"
     inkscape:window-y="-11"
     inkscape:window-maximized="1"
     inkscape:current-layer="g841" />
  <g
     inkscape:groupmode="layer"
     inkscape:label="Image"
     id="g841">
    <path
       id="path925"
       style="fill:#000000;stroke-width:0.666667"
       d="m 637.23703,85.700777 c -5.32065,-3.54281 -12.47671,-4.90302 -15.4656,-11.250578 -2.9822,-6.034351 -2.11517,-13.122678 -1.89457,-19.602235 1.49424,-6.071091 7.10386,-9.825741 11.55813,-13.726006 7.84441,-4.54292 18.7005,-4.294987 26.12866,0.992584 3.93711,4.629771 10.83295,8.183549 10.21038,15.222837 -0.23183,6.921038 1.05907,14.840826 -4.38275,20.252689 -5.3376,5.418429 -13.15951,8.410838 -20.72099,8.657979 -1.82315,-0.009 -3.64371,-0.201889 -5.43326,-0.54727 z" />
    <path
       id="path923"
       style="fill:#000000;stroke-width:0.666667"
       d="m 463.23703,85.700777 c -3.11921,-2.881836 -7.81522,-3.161593 -11.05873,-5.621276 -2.59062,-3.387004 -5.58585,-6.489981 -6.46697,-10.85948 -0.42249,-5.2451 -0.87306,-10.746518 0.41789,-15.91326 1.39423,-4.358322 5.85465,-6.459969 8.41324,-10.018176 3.3413,-3.087439 7.89352,-5.008659 12.30641,-5.099267 5.16942,-0.439167 10.00796,0.169817 14.5533,2.400802 4.18287,2.802358 7.16481,6.985986 10.81917,10.425842 2.59482,4.084986 1.06438,9.250673 1.64719,13.812636 0.3899,8.275677 -5.38918,16.034598 -13.23243,18.448774 -3.69773,1.485852 -7.29169,3.486013 -11.45718,2.90368 -1.98473,-0.08241 -3.97892,-0.155326 -5.94189,-0.480275 z" />
    <path
       id="path921"
       style="fill:#000000;stroke-width:0.666667"
       d="m 185.90369,85.700777 c -3.63002,-3.370738 -9.43259,-3.242358 -12.53412,-7.35294 -3.46473,-3.803074 -5.59961,-8.935564 -5.27138,-14.120072 0.016,-3.637844 -0.25758,-7.358478 0.58492,-10.923062 1.05855,-3.310978 4.19372,-5.168825 6.34556,-7.705199 1.90853,-1.79216 3.4728,-4.136134 6.04471,-5.017938 2.22989,-0.897563 4.47324,-1.930298 6.82416,-2.405957 3.10885,-0.171151 6.23251,0.195107 9.33393,0.02416 3.08109,0.571331 5.9111,2.075303 8.64712,3.516263 3.22132,2.662441 5.41088,6.395537 8.84104,8.822167 2.73072,3.380228 1.35132,7.937279 1.66125,11.890708 0.21319,4.01186 0.25362,8.336517 -2.08665,11.808769 -2.44211,4.440853 -6.69763,7.693946 -11.49206,9.223307 -3.49839,1.7039 -7.3109,3.160381 -11.27385,2.701905 -1.88245,-0.0125 -3.77023,-0.124169 -5.62463,-0.462113 z" />
    <path
       id="path919"
       style="fill:#000000;stroke-width:0.666667"
       d="m 619.73703,163.83793 c 0,-22.11111 0,-44.22222 0,-66.333333 16,0 32.00001,0 48.00001,0 0,44.222223 0,88.444453 0,132.666673 -16,0 -32.00001,0 -48.00001,0 0,-22.11111 0,-44.22223 0,-66.33334 z" />
    <path
       id="path917"
       style="fill:#000000;stroke-width:0.666667"
       d="m 523.73703,168.5046 c 0.13402,-19.89211 -0.29086,-39.79324 0.47179,-59.67709 1.98042,-7.96664 2.21332,-16.318083 5.84745,-23.801024 3.58208,-6.794056 7.62947,-13.720947 12.77051,-19.346068 6.46027,-4.075081 11.55012,-9.702951 18.48193,-13.128465 9.78245,-5.081294 20.9139,-8.015715 31.94652,-7.831155 5.96871,-0.383068 3.25415,6.063652 3.76677,9.696317 -0.095,14.251384 -0.18998,28.502768 -0.28497,42.754152 -9.32024,-1.405797 -19.60953,4.374493 -21.53328,13.949933 -2.64751,6.02788 -3.2957,16.929 6.40527,13.82814 6.28907,1.00338 18.05023,-3.36052 15.17161,6.7636 0.10175,15.26388 0.20348,30.52777 0.30521,45.79166 -7.78294,0 -15.56587,0 -23.34881,0 0,17.55556 0,35.11111 0,52.66667 -16.66667,0 -33.33333,0 -50,0 0,-20.55556 0,-41.11111 0,-61.66667 z" />
    <path
       id="path915"
       style="fill:#000000;stroke-width:0.666667"
       d="m 445.07036,163.83793 c 0,-22.11111 0,-44.22222 0,-66.333333 16.22222,0 32.44445,0 48.66667,0 0,44.222223 0,88.444453 0,132.666673 -16.22222,0 -32.44445,0 -48.66667,0 0,-22.11111 0,-44.22223 0,-66.33334 z" />
    <path
       id="path913"
       style="fill:#000000;stroke-width:0.666667"
       d="m 246.40369,168.5046 c 0.13402,-19.89211 -0.29086,-39.79324 0.47179,-59.67709 2.0667,-8.15695 2.3005,-16.761722 6.13336,-24.346039 2.9678,-5.775767 6.71889,-11.194901 10.63332,-16.374587 5.29502,-5.536868 11.69041,-9.923568 18.07453,-14.131786 9.22832,-5.738802 20.13967,-8.57359 30.88191,-9.265276 6.19862,-1.627818 8.16545,2.987491 7.1007,8.110256 -0.0985,14.78373 -0.19707,29.567459 -0.29561,44.351189 -9.56686,-1.616134 -19.53692,4.906053 -21.64982,14.423353 -2.10265,5.81808 -3.53311,16.40941 6.00398,13.1559 5.32084,0.19345 10.6535,0.0368 15.97917,0.0874 0,17.55556 0,35.11111 0,52.66667 -7.77778,0 -15.55555,0 -23.33333,0 0,17.55556 0,35.11111 0,52.66667 -16.66667,0 -33.33333,0 -50,0 0,-20.55556 0,-41.11111 0,-61.66667 z" />
    <path
       style="fill:#000000;stroke-width:0.666667"
       d="M 167.73702,163.83793 V 97.504597 h 24.33333 24.33334 v 66.333333 66.33334 h -24.33334 -24.33333 z"
       id="path911" />
    <path
       id="path909"
       style="fill:#000000;stroke-width:0.666667"
       d="m 17.070347,192.5046 c 0.156988,-15.58287 -0.77488,-31.31992 2.199729,-46.71193 1.038934,-15.17006 9.463092,-28.90327 20.917903,-38.56209 16.804235,-15.951487 43.650265,-18.624295 64.204721,-8.733598 17.67785,8.051988 29.77047,26.155778 31.49164,45.388688 1.42119,11.42444 2.83305,22.85356 2.49446,34.38893 0.12398,17.29874 -0.0683,34.59785 0.0251,51.89667 -16.88889,0 -33.77778,0 -50.666664,0 -0.472725,-27.02234 1.06154,-54.09357 -1.017243,-81.07585 -2.736129,-8.52642 -17.552208,-7.59801 -18.051207,1.8242 -1.978875,9.33076 -0.07173,18.90713 -0.929839,28.33389 -0.05626,16.97257 0.07086,33.94521 -0.0017,50.91776 -16.888889,0 -33.777779,0 -50.666668,0 -1.38e-4,-12.55556 2.76e-4,-25.11112 -2.08e-4,-37.66667 z" />
    <path
       id="path907"
       style="fill:#000000;stroke-width:0.666667"
       d="m 906.40951,232.34368 c -8.90873,-2.92528 -18.96305,-2.852 -26.66667,-8.86522 -6.87611,-4.91547 -14.74259,-9.40984 -19.20897,-16.81904 -5.266,-4.64936 -7.45256,-11.70148 -11.09782,-17.62279 -2.83484,-8.48984 -4.6748,-17.44884 -5.234,-26.39524 0.55485,-8.33337 1.8307,-16.61828 5.0041,-24.37228 2.14627,-6.14818 5.45152,-11.65104 8.97322,-17.1471 4.78623,-4.29631 8.91972,-9.3856 13.93948,-13.40442 5.40165,-5.38819 12.71032,-8.620719 19.77357,-11.258315 8.94957,-1.832656 18.20399,-6.033198 27.33655,-2.615501 5.91109,0.02968 9.89295,3.45257 7.82676,9.873966 -0.0458,14.67323 0.28957,29.35889 -0.48915,44.01954 -6.83603,-3.08249 -14.38634,-6.99465 -21.28077,-1.82099 -6.52496,2.85206 -9.54979,10.20208 -10.43726,16.71344 0.64708,10.54763 9.90308,20.38951 20.86806,19.72935 10.36784,0.55632 17.94195,-9.62337 17.74095,-19.32632 0.51977,-38.72646 0.18044,-77.463835 0.27948,-116.194793 16.66667,0 33.33334,0 50.00001,0 -0.12914,40.859155 0.32957,81.722053 -0.3773,122.577953 -2.04608,7.94083 -1.64592,16.6632 -6.19633,23.7952 -3.34011,8.4789 -8.7478,15.58532 -15.56594,21.70537 -6.06352,4.87404 -12.80603,9.08833 -19.89752,12.25129 -10.29478,3.45114 -21.17023,6.3645 -32.11326,5.59317 -1.04711,-0.22991 -2.11545,-0.29908 -3.17719,-0.41727 z" />
    <path
       id="path905"
       style="fill:#000000;stroke-width:0.666667"
       d="m 752.8103,232.39118 c -6.14316,-2.77992 -13.32502,-1.85236 -19.2651,-5.32235 -5.3012,-1.7169 -9.44746,-5.19422 -13.98022,-8.00914 -4.30484,-4.64559 -9.49713,-6.6156 -12.62549,-12.48818 -5.07664,-4.55039 -7.49918,-10.97967 -9.8502,-17.21232 -4.51638,-5.99476 -3.14765,-13.86305 -5.59082,-20.29184 -2.35818,-7.35734 2.27432,-14.15733 1.70753,-21.47773 1.12421,-7.37456 4.35113,-14.03357 8.03781,-20.42567 3.27471,-7.62609 10.26052,-12.35369 15.82661,-18.32602 6.47691,-5.59225 14.29517,-9.298126 22.18717,-12.391014 6.77265,-1.254553 13.85454,-4.548232 21.06212,-3.456844 6.99789,-1.419418 13.16748,1.218126 19.78461,2.056341 5.72341,2.042833 12.0616,2.912759 16.82224,6.971597 6.576,3.40767 11.41506,8.82386 16.70612,13.69348 3.83529,4.70082 7.37141,9.71403 10.59985,14.84717 2.21169,6.05291 3.7711,12.38326 5.71879,18.48643 0.24233,6.86099 1.67539,16.73956 -0.648,21.78753 -24.13036,-0.0636 -48.29722,0.22689 -72.40304,-0.27495 -7.16946,-3.32745 -5.135,-15.25929 -2.2812,-20.87986 7.58347,-3.93745 16.8741,0.7794 24.60167,-2.95892 1.98911,-4.48908 -3.76341,-10.72647 -7.94167,-13.31336 -6.5432,-4.04977 -16.15375,-2.04501 -20.68726,4.04265 -6.32681,4.04978 -6.83554,12.2094 -8.22846,19.00478 -2.14273,6.46463 1.37989,13.56625 2.8941,20.106 2.87408,6.36049 8.6677,11.63542 15.8695,12.23041 6.77002,2.43297 11.43495,-5.45888 17.84403,-4.14939 5.20701,3.7609 6.87198,10.93492 12.43932,14.46286 3.49378,4.32099 5.55689,9.73281 10.56641,12.69409 7.95009,6.08836 -4.05231,10.37027 -8.95096,12.85231 -5.19545,4.11581 -11.96109,4.22333 -17.99521,6.29558 -7.29677,1.52611 -14.78405,2.20069 -22.22025,1.44636 z" />
    <path
       id="path900"
       style="fill:#000000;stroke-width:0.666667"
       d="m 348.23702,232.37838 c -2.30312,-7.87267 -0.59374,-16.20231 -1.16536,-24.27691 -0.004,-9.31007 5e-4,-18.62013 -0.001,-27.9302 6.98375,1.1597 12.99773,-1.91342 17.91764,-6.65764 4.42236,-5.62189 5.12092,-12.51033 4.98566,-19.49511 -1.07249,-3.68099 -6.40375,-1.15681 -9.41746,-1.84725 -4.49528,0 -8.99056,0 -13.48584,0 0,-17.55556 0,-35.11112 0,-52.666673 7.5504,0 15.10079,0 22.65119,0 0.11626,-17.444443 0.23253,-34.888887 0.34881,-52.33333 16.66667,0 33.33333,0 50,0 -0.003,39.830843 0.50863,79.663263 -0.006,119.492903 -1.49152,6.25396 -2.16411,12.71188 -4.20896,18.72704 -1.84034,9.79789 -8.71106,17.4931 -14.1361,25.50772 -5.70326,4.04216 -10.71015,8.94838 -16.77932,12.5397 -5.95174,2.6499 -11.45908,6.63565 -18.26802,6.84403 -5.92914,1.57964 -12.02639,3.64605 -18.43457,2.09572 z" />
    <g
       id="g848"
       transform="translate(126.60578,-252.11066)" />
  </g>
</svg>
